<svg width="1200" height="675" viewBox="0 0 1200 675" fill="none" xmlns="http://www.w3.org/2000/svg" role="img" aria-hidden="true">
  <defs>
    <linearGradient id="bg" x1="0" y1="0" x2="1200" y2="675" gradientUnits="userSpaceOnUse">
      <stop stop-color="#0A0E27"/>
      <stop offset="0.55" stop-color="#1A237E" stop-opacity="0.32"/>
      <stop offset="1" stop-color="#0D1642"/>
    </linearGradient>
    <linearGradient id="gold" x1="0" y1="0" x2="1" y2="1">
      <stop stop-color="#D4AF37"/>
      <stop offset="0.55" stop-color="#FFD700"/>
      <stop offset="1" stop-color="#B8860B"/>
    </linearGradient>
    <radialGradient id="glow" cx="0" cy="0" r="1" gradientUnits="userSpaceOnUse" gradientTransform="translate(610 260) rotate(90) scale(240 360)">
      <stop stop-color="#FFD700" stop-opacity="0.18"/>
      <stop offset="1" stop-color="#FFD700" stop-opacity="0"/>
    </radialGradient>
  </defs>

  <rect x="40" y="40" width="1120" height="595" rx="36" fill="url(#bg)" stroke="url(#gold)" stroke-opacity="0.35" stroke-width="2"/>
  <circle cx="610" cy="260" r="220" fill="url(#glow)"/>

  <!-- Generator body -->
  <rect x="360" y="210" width="480" height="280" rx="26" stroke="url(#gold)" stroke-width="6"/>
  <rect x="400" y="250" width="180" height="120" rx="16" stroke="url(#gold)" stroke-width="6" opacity="0.95"/>
  <circle cx="490" cy="310" r="36" stroke="url(#gold)" stroke-width="6"/>
  <path d="M490 288V332M468 310H512" stroke="url(#gold)" stroke-width="6" stroke-linecap="round"/>

  <rect x="610" y="250" width="190" height="60" rx="14" stroke="#FFFFFF" stroke-opacity="0.18" stroke-width="4"/>
  <path d="M640 280H770" stroke="#FFFFFF" stroke-opacity="0.18" stroke-width="4" stroke-linecap="round"/>
  <path d="M640 280H700" stroke="url(#gold)" stroke-width="4" stroke-linecap="round"/>

  <!-- Feet -->
  <path d="M410 490V520" stroke="url(#gold)" stroke-width="8" stroke-linecap="round"/>
  <path d="M790 490V520" stroke="url(#gold)" stroke-width="8" stroke-linecap="round"/>

  <!-- Bolt / energy icon -->
  <path d="M610 125L560 235H625L590 330L705 195H640L680 125H610Z" fill="url(#gold)" fill-opacity="0.9"/>

  <!-- Decorative sparks -->
  <path d="M790 160L812 138" stroke="#FFD700" stroke-opacity="0.35" stroke-width="6" stroke-linecap="round"/>
  <path d="M820 190L850 190" stroke="#FFD700" stroke-opacity="0.25" stroke-width="6" stroke-linecap="round"/>
  <path d="M430 165L410 145" stroke="#FFD700" stroke-opacity="0.25" stroke-width="6" stroke-linecap="round"/>
  <path d="M400 195L370 195" stroke="#FFD700" stroke-opacity="0.2" stroke-width="6" stroke-linecap="round"/>

  <!-- Subtle grid -->
  <path d="M120 560H1080" stroke="#FFFFFF" stroke-opacity="0.06" stroke-width="2" stroke-linecap="round"/>
  <path d="M220 140V560" stroke="#FFFFFF" stroke-opacity="0.04" stroke-width="2" stroke-linecap="round"/>
  <path d="M980 140V560" stroke="#FFFFFF" stroke-opacity="0.04" stroke-width="2" stroke-linecap="round"/>
</svg>
