<svg width="1200" height="675" viewBox="0 0 1200 675" fill="none" xmlns="http://www.w3.org/2000/svg" role="img" aria-hidden="true">
  <defs>
    <linearGradient id="bg" x1="0" y1="0" x2="1200" y2="675" gradientUnits="userSpaceOnUse">
      <stop stop-color="#0A0E27"/>
      <stop offset="0.55" stop-color="#1A237E" stop-opacity="0.30"/>
      <stop offset="1" stop-color="#0D1642"/>
    </linearGradient>
    <linearGradient id="gold" x1="0" y1="0" x2="1" y2="1">
      <stop stop-color="#D4AF37"/>
      <stop offset="0.55" stop-color="#FFD700"/>
      <stop offset="1" stop-color="#B8860B"/>
    </linearGradient>
    <radialGradient id="glow" cx="0" cy="0" r="1" gradientUnits="userSpaceOnUse" gradientTransform="translate(610 270) rotate(90) scale(250 380)">
      <stop stop-color="#FFD700" stop-opacity="0.16"/>
      <stop offset="1" stop-color="#FFD700" stop-opacity="0"/>
    </radialGradient>
  </defs>

  <rect x="40" y="40" width="1120" height="595" rx="36" fill="url(#bg)" stroke="url(#gold)" stroke-opacity="0.35" stroke-width="2"/>
  <circle cx="610" cy="270" r="230" fill="url(#glow)"/>

  <!-- Toolbox -->
  <rect x="370" y="330" width="480" height="220" rx="28" stroke="url(#gold)" stroke-width="6"/>
  <path d="M430 330V300C430 278 448 260 470 260H750C772 260 790 278 790 300V330" stroke="url(#gold)" stroke-width="6" stroke-linejoin="round"/>
  <rect x="560" y="370" width="100" height="40" rx="14" stroke="#FFFFFF" stroke-opacity="0.16" stroke-width="4"/>
  <path d="M420 430H800" stroke="#FFFFFF" stroke-opacity="0.08" stroke-width="10" stroke-linecap="round"/>

  <!-- Tools (simple line art) -->
  <path d="M500 220C520 246 550 260 582 260C578 228 564 200 542 178C526 188 512 202 500 220Z" fill="url(#gold)" fill-opacity="0.10" stroke="url(#gold)" stroke-width="6" stroke-linejoin="round"/>
  <path d="M720 210L610 320" stroke="url(#gold)" stroke-width="8" stroke-linecap="round"/>
  <path d="M736 194L754 212" stroke="url(#gold)" stroke-width="8" stroke-linecap="round"/>
  <path d="M594 304L612 322" stroke="url(#gold)" stroke-width="8" stroke-linecap="round"/>

  <!-- Accessories beads / tags -->
  <circle cx="300" cy="210" r="16" fill="#FFD700" fill-opacity="0.18" stroke="url(#gold)" stroke-opacity="0.55" stroke-width="4"/>
  <circle cx="930" cy="220" r="20" fill="#FFD700" fill-opacity="0.12" stroke="url(#gold)" stroke-opacity="0.55" stroke-width="4"/>
  <circle cx="890" cy="160" r="10" fill="#FFD700" fill-opacity="0.18"/>
  <circle cx="330" cy="260" r="10" fill="#FFD700" fill-opacity="0.14"/>

  <!-- Subtle ribbon line -->
  <path d="M210 520C290 470 370 470 450 520C530 570 610 570 690 520C770 470 850 470 930 520" stroke="#D4AF37" stroke-opacity="0.18" stroke-width="5" stroke-linecap="round"/>
</svg>
